<svg xmlns="http://www.w3.org/2000/svg" xmlns:xlink="http://www.w3.org/1999/xlink" viewBox="0 0 818 204.5"><defs><style>.cls-1{fill:url(#linear-gradient);}.cls-2{fill:url(#linear-gradient-2);}.cls-3{fill:url(#linear-gradient-3);}</style><linearGradient id="linear-gradient" x1="408" y1="204.5" x2="408" gradientUnits="userSpaceOnUse"><stop offset="0" stop-color="#e6e6e6" stop-opacity="0"/><stop offset="0.05" stop-color="#cacaca" stop-opacity="0.18"/><stop offset="0.14" stop-color="#9c9c9c" stop-opacity="0.48"/><stop offset="0.25" stop-color="#787878" stop-opacity="0.71"/><stop offset="0.39" stop-color="#5f5f5f" stop-opacity="0.88"/><stop offset="0.57" stop-color="#505050" stop-opacity="0.97"/><stop offset="1" stop-color="#4c4c4c"/></linearGradient><linearGradient id="linear-gradient-2" x1="102" y1="204.5" x2="102" gradientUnits="userSpaceOnUse"><stop offset="0" stop-color="#e6e6e6" stop-opacity="0"/><stop offset="0.04" stop-color="#e8e5cc" stop-opacity="0.14"/><stop offset="0.09" stop-color="#eae4ab" stop-opacity="0.32"/><stop offset="0.14" stop-color="#ece38d" stop-opacity="0.48"/><stop offset="0.2" stop-color="#ede274" stop-opacity="0.62"/><stop offset="0.27" stop-color="#efe15e" stop-opacity="0.74"/><stop offset="0.35" stop-color="#f0e04d" stop-opacity="0.84"/><stop offset="0.43" stop-color="#f1e03f" stop-opacity="0.91"/><stop offset="0.54" stop-color="#f2df36" stop-opacity="0.96"/><stop offset="0.67" stop-color="#f2df31" stop-opacity="0.99"/><stop offset="1" stop-color="#f2df2f"/></linearGradient><linearGradient id="linear-gradient-3" x1="715.5" x2="715.5" xlink:href="#linear-gradient-2"/></defs><g id="Layer_2" data-name="Layer 2"><g id="Layer_1-2" data-name="Layer 1"><path class="cls-1" d="M612.5,0h-409V112.27c.3-3,.47-6.13.49-9.25h0a102.24,102.24,0,0,0,204.48,0h0a102.24,102.24,0,0,0,204,9.25Z"/><path class="cls-2" d="M204,0H0V103H0a102.24,102.24,0,0,0,204,9.25Z"/><path class="cls-3" d="M613,0V112.27c.3-3,.47-6.13.49-9.25h0A102.24,102.24,0,0,0,818,103h0V0Z"/></g></g></svg>